<?xml version="1.0" standalone="no"?>
<!DOCTYPE svg PUBLIC "-//W3C//DTD SVG 20010904//EN"
 "http://www.w3.org/TR/2001/REC-SVG-20010904/DTD/svg10.dtd">
<svg version="1.0" xmlns="http://www.w3.org/2000/svg"
 width="1105.000000pt" height="1105.000000pt" viewBox="0 0 1105.000000 1105.000000"
 preserveAspectRatio="xMidYMid meet">
<metadata>
Created by potrace 1.14, written by Peter Selinger 2001-2017
</metadata>
<g transform="translate(0.000000,1105.000000) scale(0.100000,-0.100000)"
fill="#000000" stroke="none">
<path d="M5336 11005 c-73 -19 -205 -80 -368 -173 -355 -200 -894 -479 -1238
-640 -869 -407 -1477 -635 -2099 -787 -362 -88 -378 -93 -454 -130 -215 -105
-368 -292 -429 -525 -21 -84 -22 -95 -24 -870 -2 -897 9 -1759 25 -1935 43
-470 102 -838 197 -1233 219 -909 623 -1766 1163 -2467 345 -449 784 -876
1261 -1227 428 -315 943 -600 1488 -824 282 -116 392 -144 602 -151 244 -9
374 16 670 129 729 279 1385 678 1970 1197 1192 1060 1950 2546 2160 4231 47
377 51 524 48 1855 -3 1169 -5 1254 -22 1310 -50 168 -157 327 -282 421 -123
93 -221 132 -459 184 -607 133 -1321 393 -2160 785 -375 175 -967 480 -1320
680 -279 158 -334 177 -525 181 -105 3 -161 -1 -204 -11z m306 -395 c29 -11
127 -61 218 -111 884 -489 1586 -826 2302 -1105 483 -187 901 -319 1287 -405
75 -16 158 -36 185 -44 141 -42 248 -162 275 -310 14 -76 15 -2073 1 -2380
-72 -1580 -578 -2943 -1486 -4005 -142 -166 -517 -539 -669 -665 -491 -407
-1042 -739 -1665 -1005 -253 -108 -413 -150 -570 -150 -76 0 -232 25 -312 50
-163 50 -600 246 -842 376 -824 444 -1474 997 -2000 1703 -610 818 -1018 1837
-1170 2926 -71 506 -76 636 -76 1970 0 1253 -1 1215 53 1308 32 54 111 128
167 157 23 12 128 41 232 66 1027 239 2236 746 3593 1507 99 56 203 109 230
119 69 24 180 23 247 -2z"/>
<path d="M7778 7377 c-21 -12 -338 -335 -705 -717 -2104 -2190 -2413 -2511
-2420 -2508 -9 2 -220 245 -917 1048 -335 386 -448 511 -482 529 -130 70 -285
-24 -284 -174 1 -83 -104 45 999 -1225 523 -604 553 -637 598 -656 41 -18 115
-18 156 0 40 17 104 83 1193 1216 488 509 1161 1208 1494 1553 620 643 660
690 660 763 0 42 -23 101 -53 132 -59 64 -169 82 -239 39z"/>
</g>
</svg>
