<svg xmlns="http://www.w3.org/2000/svg" xmlns:xlink="http://www.w3.org/1999/xlink" version="1.1" width="1000" height="1000" viewBox="0 0 1000 1000" xml:space="preserve">
<desc>Created with Fabric.js 3.5.0</desc>
<defs>
</defs>
<rect x="0" y="0" width="100%" height="100%" fill="#ffffff"/>
<g transform="matrix(0.25 0 0 0.25 118.0103 500)" id="591780">
<g style="" vector-effect="non-scaling-stroke">
		<g transform="matrix(2.5169 0 0 2.5169 0.0043 0.0043)" id="Capa_1">
<path style="stroke: none; stroke-width: 1; stroke-dasharray: none; stroke-linecap: butt; stroke-dashoffset: 0; stroke-linejoin: miter; stroke-miterlimit: 4; is-custom-font: none; font-file-url: none; fill: rgb(0,0,0); fill-rule: nonzero; opacity: 1;" transform=" translate(-158.9275, -158.9274)" d="M 158.929 317.855 c -1.029 0 -2.059 -0.159 -3.051 -0.477 c -33.344 -10.681 -61.732 -31.168 -84.377 -60.891 c -17.828 -23.401 -32.103 -52.526 -42.426 -86.566 C 11.661 112.506 11.461 61.358 11.461 59.209 c 0 -5.15 3.912 -9.459 9.039 -9.954 c 0.772 -0.075 78.438 -8.048 132.553 -47.347 c 3.504 -2.546 8.249 -2.543 11.753 0.001 C 218.906 41.207 296.582 49.18 297.36 49.256 c 5.123 0.5 9.034 4.807 9.034 9.953 c 0 2.149 -0.2 53.297 -17.613 110.713 c -10.324 34.04 -24.598 63.165 -42.426 86.566 c -22.644 29.723 -51.032 50.21 -84.376 60.891 C 160.987 317.696 159.958 317.855 158.929 317.855 z M 31.748 67.982 c 0.831 16.784 4.062 55.438 16.604 96.591 c 21.405 70.227 58.601 114.87 110.576 132.746 c 52.096 -17.916 89.335 -62.711 110.713 -133.202 c 12.457 -41.074 15.653 -79.434 16.472 -96.134 c -22.404 -3.269 -80.438 -14.332 -127.186 -45.785 C 112.175 53.648 54.153 64.713 31.748 67.982 z" stroke-linecap="round"/>
</g>
		<g transform="matrix(2.5169 0 0 2.5169 19.2586 -5.2041)" id="Capa_1">
<path style="stroke: none; stroke-width: 1; stroke-dasharray: none; stroke-linecap: butt; stroke-dashoffset: 0; stroke-linejoin: miter; stroke-miterlimit: 4; is-custom-font: none; font-file-url: none; fill: rgb(0,0,0); fill-rule: nonzero; opacity: 1;" transform=" translate(-166.5786, -156.8592)" d="M 153.582 207.625 c -2.372 0 -4.68 -0.844 -6.499 -2.4 l -36.163 -30.926 c -4.197 -3.589 -4.69 -9.901 -1.101 -14.099 c 3.588 -4.198 9.901 -4.692 14.099 -1.101 l 28.124 24.051 l 55.743 -73.118 c 3.348 -4.392 9.622 -5.24 14.015 -1.89 c 4.393 3.348 5.238 9.623 1.89 14.015 l -62.155 81.53 c -1.667 2.187 -4.16 3.591 -6.895 3.882 C 154.287 207.606 153.934 207.625 153.582 207.625 z" stroke-linecap="round"/>
</g>
</g>
</g>
<g transform="matrix(1 0 0 1 583.4033 458.7123)" style="" id="213854">
		
<path xml:space="preserve" font-family="Blinker" font-size="140" font-style="normal" font-weight="normal" style="stroke: none; stroke-width: 1; stroke-dasharray: none; stroke-linecap: butt; stroke-dashoffset: 0; stroke-linejoin: miter; stroke-miterlimit: 4; is-custom-font: none; font-file-url: none; fill: rgb(0,0,0); fill-rule: nonzero; opacity: 1; white-space: pre;" d="M-303.31 7.16L-303.31 7.16L-324.59 2.12Q-333.41 0.02-337.33-5.09Q-341.25-10.20-341.25-19.30L-341.25-19.30Q-341.25-32.60-333.62-38.90Q-325.99-45.20-309.89-45.20L-309.89-45.20Q-303.17-45.20-297.78-44.57Q-292.39-43.94-287.77-42.68L-287.77-42.68L-287.77-31.90Q-293.65-33.30-298.97-33.86Q-304.29-34.42-310.03-34.42L-310.03-34.42Q-320.81-34.42-325.15-31.27Q-329.49-28.12-329.49-20.14L-329.49-20.14Q-329.49-15.10-327.46-12.51Q-325.43-9.92-320.81-8.80L-320.81-8.80L-299.67-3.76Q-288.47-1.10-284.76 3.73Q-281.05 8.56-281.05 18.64L-281.05 18.64Q-281.05 33.06-288.54 39.08Q-296.03 45.10-312.27 45.10L-312.27 45.10Q-320.81 45.10-328.72 43.98Q-336.63 42.86-341.25 41.04L-341.25 41.04L-341.25 29.84Q-334.67 31.80-327.25 32.85Q-319.83 33.90-312.27 33.90L-312.27 33.90Q-301.77 33.90-297.57 30.82Q-293.37 27.74-293.37 18.92L-293.37 18.92Q-293.37 13.46-295.40 11.01Q-297.43 8.56-303.31 7.16Z"/><path xml:space="preserve" font-family="Blinker" font-size="140" font-style="normal" font-weight="normal" style="stroke: none; stroke-width: 1; stroke-dasharray: none; stroke-linecap: butt; stroke-dashoffset: 0; stroke-linejoin: miter; stroke-miterlimit: 4; is-custom-font: none; font-file-url: none; fill: rgb(0,0,0); fill-rule: nonzero; opacity: 1; white-space: pre;" d="M-224.49 32.78L-178.15 32.78L-178.15 43.98L-236.39 43.98L-236.39-43.80L-179.41-43.80L-179.41-33.02L-224.49-33.02L-224.49-6.14L-184.59-6.14L-184.59 4.36L-224.49 4.36L-224.49 32.78Z"/><path xml:space="preserve" font-family="Blinker" font-size="140" font-style="normal" font-weight="normal" style="stroke: none; stroke-width: 1; stroke-dasharray: none; stroke-linecap: butt; stroke-dashoffset: 0; stroke-linejoin: miter; stroke-miterlimit: 4; is-custom-font: none; font-file-url: none; fill: rgb(0,0,0); fill-rule: nonzero; opacity: 1; white-space: pre;" d="M-99.61 33.90L-99.61 33.90Q-93.87 33.90-87.50 32.57Q-81.13 31.24-75.67 29.00L-75.67 29.00L-75.67 39.64Q-83.37 42.72-89.32 43.91Q-95.27 45.10-101.71 45.10L-101.71 45.10Q-121.87 45.10-130.13 34.67Q-138.39 24.24-138.39-0.12L-138.39-0.12Q-138.39-23.50-128.80-34.35Q-119.21-45.20-98.21-45.20L-98.21-45.20Q-91.77-45.20-86.73-44.92Q-81.69-44.64-77.63-43.94L-77.63-43.94L-77.63-33.44Q-82.53-34.00-87.50-34.21Q-92.47-34.42-98.21-34.42L-98.21-34.42Q-113.89-34.42-120.05-26.65Q-126.21-18.88-126.21-0.12L-126.21-0.12Q-126.21 18.92-120.61 26.41Q-115.01 33.90-99.61 33.90Z"/><path xml:space="preserve" font-family="Blinker" font-size="140" font-style="normal" font-weight="normal" style="stroke: none; stroke-width: 1; stroke-dasharray: none; stroke-linecap: butt; stroke-dashoffset: 0; stroke-linejoin: miter; stroke-miterlimit: 4; is-custom-font: none; font-file-url: none; fill: rgb(0,0,0); fill-rule: nonzero; opacity: 1; white-space: pre;" d="M-0.35 12.48L-19.81 12.48L-19.81 43.98L-31.71 43.98L-31.71-43.80L-1.89-43.80Q16.73-43.80 24.78-37.43Q32.83-31.06 32.83-16.36L32.83-16.36Q32.83-4.88 27.72 1.91Q22.61 8.70 12.25 11.08L12.25 11.08L35.21 43.98L20.93 43.98L-0.35 12.48ZM20.79-16.36L20.79-16.36Q20.79-25.32 15.61-29.17Q10.43-33.02-1.89-33.02L-1.89-33.02L-19.81-33.02L-19.81 1.98L-1.89 1.98Q10.15 1.98 15.47-2.36Q20.79-6.70 20.79-16.36Z"/><path xml:space="preserve" font-family="Blinker" font-size="140" font-style="normal" font-weight="normal" style="stroke: none; stroke-width: 1; stroke-dasharray: none; stroke-linecap: butt; stroke-dashoffset: 0; stroke-linejoin: miter; stroke-miterlimit: 4; is-custom-font: none; font-file-url: none; fill: rgb(0,0,0); fill-rule: nonzero; opacity: 1; white-space: pre;" d="M91.49 32.78L137.83 32.78L137.83 43.98L79.59 43.98L79.59-43.80L136.57-43.80L136.57-33.02L91.49-33.02L91.49-6.14L131.39-6.14L131.39 4.36L91.49 4.36L91.49 32.78Z"/><path xml:space="preserve" font-family="Blinker" font-size="140" font-style="normal" font-weight="normal" style="stroke: none; stroke-width: 1; stroke-dasharray: none; stroke-linecap: butt; stroke-dashoffset: 0; stroke-linejoin: miter; stroke-miterlimit: 4; is-custom-font: none; font-file-url: none; fill: rgb(0,0,0); fill-rule: nonzero; opacity: 1; white-space: pre;" d="M175.07-43.80L245.21-43.80L245.21-33.02L216.09-33.02L216.09 43.98L204.19 43.98L204.19-33.02L175.07-33.02L175.07-43.80Z"/><path xml:space="preserve" font-family="Blinker" font-size="140" font-style="normal" font-weight="normal" style="stroke: none; stroke-width: 1; stroke-dasharray: none; stroke-linecap: butt; stroke-dashoffset: 0; stroke-linejoin: miter; stroke-miterlimit: 4; is-custom-font: none; font-file-url: none; fill: rgb(0,0,0); fill-rule: nonzero; opacity: 1; white-space: pre;" d="M320.67 7.16L320.67 7.16L299.39 2.12Q290.57 0.02 286.65-5.09Q282.73-10.20 282.73-19.30L282.73-19.30Q282.73-32.60 290.36-38.90Q297.99-45.20 314.09-45.20L314.09-45.20Q320.81-45.20 326.20-44.57Q331.59-43.94 336.21-42.68L336.21-42.68L336.21-31.90Q330.33-33.30 325.01-33.86Q319.69-34.42 313.95-34.42L313.95-34.42Q303.17-34.42 298.83-31.27Q294.49-28.12 294.49-20.14L294.49-20.14Q294.49-15.10 296.52-12.51Q298.55-9.92 303.17-8.80L303.17-8.80L324.31-3.76Q335.51-1.10 339.22 3.73Q342.93 8.56 342.93 18.64L342.93 18.64Q342.93 33.06 335.44 39.08Q327.95 45.10 311.71 45.10L311.71 45.10Q303.17 45.10 295.26 43.98Q287.35 42.86 282.73 41.04L282.73 41.04L282.73 29.84Q289.31 31.80 296.73 32.85Q304.15 33.90 311.71 33.90L311.71 33.90Q322.21 33.90 326.41 30.82Q330.61 27.74 330.61 18.92L330.61 18.92Q330.61 13.46 328.58 11.01Q326.55 8.56 320.67 7.16Z"/></g>
<g transform="matrix(1 0 0 1 584.6993 563.8664)" style="" id="357329">
		
<path xml:space="preserve" font-family="Blinker" font-size="72" font-style="normal" font-weight="normal" style="stroke: none; stroke-width: 1; stroke-dasharray: none; stroke-linecap: butt; stroke-dashoffset: 0; stroke-linejoin: miter; stroke-miterlimit: 4; is-custom-font: none; font-file-url: none; fill: rgb(0,0,0); fill-rule: nonzero; opacity: 1; white-space: pre;" d="M-299.23-0.06L-299.23-0.06Q-299.23 12.25-303.95 17.72Q-308.66 23.19-319.32 23.19L-319.32 23.19Q-330.77 23.19-335.12 18.12Q-339.48 13.04-339.48-0.06L-339.48-0.06Q-339.48-12.30-334.73-17.77Q-329.98-23.25-319.32-23.25L-319.32-23.25Q-307.87-23.25-303.55-18.17Q-299.23-13.09-299.23-0.06ZM-331.13 12.97L-331.13 12.97Q-329.76 15.42-327.10 16.43Q-324.43 17.43-319.32 17.43L-319.32 17.43Q-311.33 17.43-308.38 13.58Q-305.42 9.73-305.42-0.06L-305.42-0.06Q-305.42-4.96-305.93-8.09Q-306.43-11.22-307.51-13.17L-307.51-13.17Q-308.88-15.61-311.51-16.66Q-314.14-17.70-319.32-17.70L-319.32-17.70Q-327.38-17.70-330.34-13.81Q-333.29-9.93-333.29-0.06L-333.29-0.06Q-333.29 4.83-332.78 7.97Q-332.28 11.10-331.13 12.97Z"/><path xml:space="preserve" font-family="Blinker" font-size="72" font-style="normal" font-weight="normal" style="stroke: none; stroke-width: 1; stroke-dasharray: none; stroke-linecap: butt; stroke-dashoffset: 0; stroke-linejoin: miter; stroke-miterlimit: 4; is-custom-font: none; font-file-url: none; fill: rgb(0,0,0); fill-rule: nonzero; opacity: 1; white-space: pre;" d="M-263.16-5.25L-263.16 22.62L-269.06 22.62L-269.06-12.95L-263.66-12.95L-263.38-9.93L-263.09-9.93Q-260.28-11.58-257.47-12.41Q-254.66-13.24-251.93-13.24L-251.93-13.24Q-250.78-13.24-250.38-13.24Q-249.98-13.24-249.77-13.17L-249.77-13.17L-249.77-7.48Q-250.27-7.62-251.03-7.66Q-251.78-7.69-253.37-7.69L-253.37-7.69Q-255.96-7.69-258.44-7.08Q-260.93-6.47-263.16-5.25L-263.16-5.25Z"/><path xml:space="preserve" font-family="Blinker" font-size="72" font-style="normal" font-weight="normal" style="stroke: none; stroke-width: 1; stroke-dasharray: none; stroke-linecap: butt; stroke-dashoffset: 0; stroke-linejoin: miter; stroke-miterlimit: 4; is-custom-font: none; font-file-url: none; fill: rgb(0,0,0); fill-rule: nonzero; opacity: 1; white-space: pre;" d="M-207.79 34.28L-207.79 34.28Q-211.39 34.28-214.52 33.81Q-217.66 33.35-219.67 32.55L-219.67 32.55L-219.67 27.30Q-218.02 27.95-214.81 28.38Q-211.61 28.81-208.44 28.81L-208.44 28.81Q-203.04 28.81-200.95 26.69Q-198.86 24.56-198.86 19.16L-198.86 19.16L-198.86 16.93Q-201.53 18.51-204.55 19.34Q-207.58 20.17-210.67 20.17L-210.67 20.17Q-217.80 20.17-220.86 16.21Q-223.92 12.25-223.92 3.25L-223.92 3.25Q-223.92-5.89-220.00-9.78Q-216.07-13.67-206.64-13.67L-206.64-13.67Q-203.26-13.67-199.37-13.27Q-195.48-12.88-192.96-12.30L-192.96-12.30L-192.96 17.51Q-192.96 26.87-196.27 30.57Q-199.58 34.28-207.79 34.28ZM-206.64-8.34L-206.64-8.34Q-213.55-8.34-215.78-5.97Q-218.02-3.59-218.02 3.25L-218.02 3.25Q-218.02 9.73-216.11 12.21Q-214.20 14.70-208.73 14.70L-208.73 14.70Q-206.35 14.70-203.80 14.01Q-201.24 13.33-198.86 12.11L-198.86 12.11L-198.86-7.55Q-200.59-7.91-202.57-8.13Q-204.55-8.34-206.64-8.34Z"/><path xml:space="preserve" font-family="Blinker" font-size="72" font-style="normal" font-weight="normal" style="stroke: none; stroke-width: 1; stroke-dasharray: none; stroke-linecap: butt; stroke-dashoffset: 0; stroke-linejoin: miter; stroke-miterlimit: 4; is-custom-font: none; font-file-url: none; fill: rgb(0,0,0); fill-rule: nonzero; opacity: 1; white-space: pre;" d="M-153.29 23.19L-153.29 23.19Q-158.76 23.19-161.32 20.57Q-163.87 17.94-163.87 12.25L-163.87 12.25Q-163.87 6.49-160.78 4.08Q-157.68 1.67-150.26 1.67L-150.26 1.67Q-147.82 1.67-145.44 1.88Q-143.06 2.10-140.98 2.53L-140.98 2.53L-140.98-0.93Q-140.98-4.89-142.99-6.61Q-145.01-8.34-149.47-8.34L-149.47-8.34Q-152.78-8.34-155.30-8.09Q-157.82-7.84-160.34-7.26L-160.34-7.26L-160.34-12.37Q-157.46-13.09-154.48-13.38Q-151.49-13.67-147.67-13.67L-147.67-13.67Q-141.26-13.67-138.17-10.68Q-135.07-7.69-135.07-1.43L-135.07-1.43L-135.07 22.62L-140.47 22.62L-140.76 19.31L-140.90 19.31Q-143.06 21.03-146.48 22.11Q-149.90 23.19-153.29 23.19ZM-149.62 6.49L-149.62 6.49Q-154.51 6.49-156.42 7.68Q-158.33 8.87-158.33 11.89L-158.33 11.89Q-158.33 15.06-156.74 16.46Q-155.16 17.87-151.56 17.87L-151.56 17.87Q-148.75 17.87-145.80 17.00Q-142.85 16.14-140.98 14.84L-140.98 14.84L-140.98 7.21Q-143.35 6.85-145.40 6.67Q-147.46 6.49-149.62 6.49Z"/><path xml:space="preserve" font-family="Blinker" font-size="72" font-style="normal" font-weight="normal" style="stroke: none; stroke-width: 1; stroke-dasharray: none; stroke-linecap: butt; stroke-dashoffset: 0; stroke-linejoin: miter; stroke-miterlimit: 4; is-custom-font: none; font-file-url: none; fill: rgb(0,0,0); fill-rule: nonzero; opacity: 1; white-space: pre;" d="M-97.78-5.10L-97.78 22.62L-103.68 22.62L-103.68-12.95L-98.57-12.95L-98.28-9.49L-98.06-9.49Q-95.18-11.65-92.05-12.66Q-88.92-13.67-85.03-13.67L-85.03-13.67Q-79.13-13.67-76.07-10.72Q-73.01-7.77-73.01-2.01L-73.01-2.01L-73.01 22.62L-78.91 22.62L-78.91-1.29Q-78.91-4.89-80.93-6.61Q-82.94-8.34-87.12-8.34L-87.12-8.34Q-89.71-8.34-92.41-7.51Q-95.11-6.69-97.78-5.10L-97.78-5.10Z"/><path xml:space="preserve" font-family="Blinker" font-size="72" font-style="normal" font-weight="normal" style="stroke: none; stroke-width: 1; stroke-dasharray: none; stroke-linecap: butt; stroke-dashoffset: 0; stroke-linejoin: miter; stroke-miterlimit: 4; is-custom-font: none; font-file-url: none; fill: rgb(0,0,0); fill-rule: nonzero; opacity: 1; white-space: pre;" d="M-35.50-25.26L-35.50-19.14L-41.83-19.14L-41.83-25.26L-35.50-25.26ZM-35.71-12.95L-35.71 22.62L-41.62 22.62L-41.62-12.95L-35.71-12.95Z"/><path xml:space="preserve" font-family="Blinker" font-size="72" font-style="normal" font-weight="normal" style="stroke: none; stroke-width: 1; stroke-dasharray: none; stroke-linecap: butt; stroke-dashoffset: 0; stroke-linejoin: miter; stroke-miterlimit: 4; is-custom-font: none; font-file-url: none; fill: rgb(0,0,0); fill-rule: nonzero; opacity: 1; white-space: pre;" d="M0 17.43L20.02 17.43L20.02 22.62L-6.70 22.62L-6.70 17.43L12.10-7.91L-5.40-7.91L-5.40-12.95L18.79-12.95L18.79-7.91L0 17.43Z"/><path xml:space="preserve" font-family="Blinker" font-size="72" font-style="normal" font-weight="normal" style="stroke: none; stroke-width: 1; stroke-dasharray: none; stroke-linecap: butt; stroke-dashoffset: 0; stroke-linejoin: miter; stroke-miterlimit: 4; is-custom-font: none; font-file-url: none; fill: rgb(0,0,0); fill-rule: nonzero; opacity: 1; white-space: pre;" d="M56.88 23.19L56.88 23.19Q51.41 23.19 48.85 20.57Q46.30 17.94 46.30 12.25L46.30 12.25Q46.30 6.49 49.39 4.08Q52.49 1.67 59.90 1.67L59.90 1.67Q62.35 1.67 64.73 1.88Q67.10 2.10 69.19 2.53L69.19 2.53L69.19-0.93Q69.19-4.89 67.18-6.61Q65.16-8.34 60.70-8.34L60.70-8.34Q57.38-8.34 54.86-8.09Q52.34-7.84 49.82-7.26L49.82-7.26L49.82-12.37Q52.70-13.09 55.69-13.38Q58.68-13.67 62.50-13.67L62.50-13.67Q68.90-13.67 72-10.68Q75.10-7.69 75.10-1.43L75.10-1.43L75.10 22.62L69.70 22.62L69.41 19.31L69.26 19.31Q67.10 21.03 63.68 22.11Q60.26 23.19 56.88 23.19ZM60.55 6.49L60.55 6.49Q55.66 6.49 53.75 7.68Q51.84 8.87 51.84 11.89L51.84 11.89Q51.84 15.06 53.42 16.46Q55.01 17.87 58.61 17.87L58.61 17.87Q61.42 17.87 64.37 17.00Q67.32 16.14 69.19 14.84L69.19 14.84L69.19 7.21Q66.82 6.85 64.76 6.67Q62.71 6.49 60.55 6.49Z"/><path xml:space="preserve" font-family="Blinker" font-size="72" font-style="normal" font-weight="normal" style="stroke: none; stroke-width: 1; stroke-dasharray: none; stroke-linecap: butt; stroke-dashoffset: 0; stroke-linejoin: miter; stroke-miterlimit: 4; is-custom-font: none; font-file-url: none; fill: rgb(0,0,0); fill-rule: nonzero; opacity: 1; white-space: pre;" d="M126.94 17.07L126.94 17.07L126.94 22.04Q125.78 22.55 123.80 22.87Q121.82 23.19 120.02 23.19L120.02 23.19Q113.54 23.19 110.77 20.31Q108 17.43 108 10.38L108 10.38L108-7.91L102.67-7.91L102.67-12.95L108.07-12.95L109.01-21.59L113.90-21.59L113.90-12.95L126.58-12.95L126.58-7.91L113.90-7.91L113.90 10.16Q113.90 14.55 115.52 16.14Q117.14 17.72 121.25 17.72L121.25 17.72Q122.54 17.72 124.24 17.51Q125.93 17.29 126.94 17.07Z"/><path xml:space="preserve" font-family="Blinker" font-size="72" font-style="normal" font-weight="normal" style="stroke: none; stroke-width: 1; stroke-dasharray: none; stroke-linecap: butt; stroke-dashoffset: 0; stroke-linejoin: miter; stroke-miterlimit: 4; is-custom-font: none; font-file-url: none; fill: rgb(0,0,0); fill-rule: nonzero; opacity: 1; white-space: pre;" d="M161.06-25.26L161.06-19.14L154.73-19.14L154.73-25.26L161.06-25.26ZM160.85-12.95L160.85 22.62L154.94 22.62L154.94-12.95L160.85-12.95Z"/><path xml:space="preserve" font-family="Blinker" font-size="72" font-style="normal" font-weight="normal" style="stroke: none; stroke-width: 1; stroke-dasharray: none; stroke-linecap: butt; stroke-dashoffset: 0; stroke-linejoin: miter; stroke-miterlimit: 4; is-custom-font: none; font-file-url: none; fill: rgb(0,0,0); fill-rule: nonzero; opacity: 1; white-space: pre;" d="M223.78 4.76L223.78 4.76Q223.78 14.84 220.07 19.02Q216.36 23.19 207.36 23.19L207.36 23.19Q198.07 23.19 194.47 19.16Q190.87 15.13 190.87 4.76L190.87 4.76Q190.87-5.39 194.58-9.53Q198.29-13.67 207.36-13.67L207.36-13.67Q216.65-13.67 220.21-9.64Q223.78-5.61 223.78 4.76ZM196.78 4.69L196.78 4.69Q196.78 12.61 198.86 15.17Q200.95 17.72 207.36 17.72L207.36 17.72Q213.55 17.72 215.71 15.02Q217.87 12.32 217.87 4.69L217.87 4.69Q217.87-3.23 215.82-5.79Q213.77-8.34 207.36-8.34L207.36-8.34Q201.10-8.34 198.94-5.68Q196.78-3.01 196.78 4.69Z"/><path xml:space="preserve" font-family="Blinker" font-size="72" font-style="normal" font-weight="normal" style="stroke: none; stroke-width: 1; stroke-dasharray: none; stroke-linecap: butt; stroke-dashoffset: 0; stroke-linejoin: miter; stroke-miterlimit: 4; is-custom-font: none; font-file-url: none; fill: rgb(0,0,0); fill-rule: nonzero; opacity: 1; white-space: pre;" d="M259.70-5.10L259.70 22.62L253.80 22.62L253.80-12.95L258.91-12.95L259.20-9.49L259.42-9.49Q262.30-11.65 265.43-12.66Q268.56-13.67 272.45-13.67L272.45-13.67Q278.35-13.67 281.41-10.72Q284.47-7.77 284.47-2.01L284.47-2.01L284.47 22.62L278.57 22.62L278.57-1.29Q278.57-4.89 276.55-6.61Q274.54-8.34 270.36-8.34L270.36-8.34Q267.77-8.34 265.07-7.51Q262.37-6.69 259.70-5.10L259.70-5.10Z"/><path xml:space="preserve" font-family="Blinker" font-size="72" font-style="normal" font-weight="normal" style="stroke: none; stroke-width: 1; stroke-dasharray: none; stroke-linecap: butt; stroke-dashoffset: 0; stroke-linejoin: miter; stroke-miterlimit: 4; is-custom-font: none; font-file-url: none; fill: rgb(0,0,0); fill-rule: nonzero; opacity: 1; white-space: pre;" d="M328.10-8.34L328.10-8.34Q323.50-8.34 321.73-7.26Q319.97-6.18 319.97-2.87L319.97-2.87Q319.97-1.14 320.80-0.24Q321.62 0.66 323.42 0.95L323.42 0.95L332.57 2.31Q336.89 2.96 338.62 5.01Q340.34 7.07 340.34 11.46L340.34 11.46Q340.34 17.65 337.39 20.42Q334.44 23.19 327.60 23.19L327.60 23.19Q323.50 23.19 319.97 22.76Q316.44 22.33 314.14 21.61L314.14 21.61L314.14 16.07Q316.44 16.79 319.79 17.25Q323.14 17.72 326.66 17.72L326.66 17.72Q331.13 17.72 332.78 16.43Q334.44 15.13 334.44 11.82L334.44 11.82Q334.44 9.73 333.50 8.76Q332.57 7.79 330.12 7.43L330.12 7.43L320.98 6.06Q317.52 5.55 315.83 3.39Q314.14 1.23 314.06-2.87L314.06-2.87Q314.06-8.49 317.41-11.08Q320.76-13.67 327.74-13.67L327.74-13.67Q330.62-13.67 332.96-13.53Q335.30-13.38 337.90-12.95L337.90-12.95L337.90-7.69Q336.02-7.98 333.50-8.16Q330.98-8.34 328.10-8.34Z"/></g>
</svg>