<svg xmlns="http://www.w3.org/2000/svg" xmlns:xlink="http://www.w3.org/1999/xlink" version="1.1" width="1000" height="1000" viewBox="0 0 1000 1000" xml:space="preserve">
<desc>Created with Fabric.js 3.5.0</desc>
<defs>
</defs>
<rect x="0" y="0" width="100%" height="100%" fill="#ffffff"/>
<g transform="matrix(0.25 0 0 0.25 118.0103 500)" id="160357">
<g style="" vector-effect="non-scaling-stroke">
		<g transform="matrix(2.5169 0 0 2.5169 0.0043 0.0043)" id="521152">
<path style="stroke: none; stroke-width: 1; stroke-dasharray: none; stroke-linecap: butt; stroke-dashoffset: 0; stroke-linejoin: miter; stroke-miterlimit: 4; is-custom-font: none; font-file-url: none; fill: rgb(0,0,0); fill-rule: nonzero; opacity: 1;" transform=" translate(-158.9275, -158.9274)" d="M 158.929 317.855 c -1.029 0 -2.059 -0.159 -3.051 -0.477 c -33.344 -10.681 -61.732 -31.168 -84.377 -60.891 c -17.828 -23.401 -32.103 -52.526 -42.426 -86.566 C 11.661 112.506 11.461 61.358 11.461 59.209 c 0 -5.15 3.912 -9.459 9.039 -9.954 c 0.772 -0.075 78.438 -8.048 132.553 -47.347 c 3.504 -2.546 8.249 -2.543 11.753 0.001 C 218.906 41.207 296.582 49.18 297.36 49.256 c 5.123 0.5 9.034 4.807 9.034 9.953 c 0 2.149 -0.2 53.297 -17.613 110.713 c -10.324 34.04 -24.598 63.165 -42.426 86.566 c -22.644 29.723 -51.032 50.21 -84.376 60.891 C 160.987 317.696 159.958 317.855 158.929 317.855 z M 31.748 67.982 c 0.831 16.784 4.062 55.438 16.604 96.591 c 21.405 70.227 58.601 114.87 110.576 132.746 c 52.096 -17.916 89.335 -62.711 110.713 -133.202 c 12.457 -41.074 15.653 -79.434 16.472 -96.134 c -22.404 -3.269 -80.438 -14.332 -127.186 -45.785 C 112.175 53.648 54.153 64.713 31.748 67.982 z" stroke-linecap="round"/>
</g>
		<g transform="matrix(2.5169 0 0 2.5169 19.2586 -5.2041)" id="973992">
<path style="stroke: none; stroke-width: 1; stroke-dasharray: none; stroke-linecap: butt; stroke-dashoffset: 0; stroke-linejoin: miter; stroke-miterlimit: 4; is-custom-font: none; font-file-url: none; fill: rgb(0,0,0); fill-rule: nonzero; opacity: 1;" transform=" translate(-166.5786, -156.8592)" d="M 153.582 207.625 c -2.372 0 -4.68 -0.844 -6.499 -2.4 l -36.163 -30.926 c -4.197 -3.589 -4.69 -9.901 -1.101 -14.099 c 3.588 -4.198 9.901 -4.692 14.099 -1.101 l 28.124 24.051 l 55.743 -73.118 c 3.348 -4.392 9.622 -5.24 14.015 -1.89 c 4.393 3.348 5.238 9.623 1.89 14.015 l -62.155 81.53 c -1.667 2.187 -4.16 3.591 -6.895 3.882 C 154.287 207.606 153.934 207.625 153.582 207.625 z" stroke-linecap="round"/>
</g>
</g>
</g>
<g transform="matrix(1 0 0 1 580.0703 553.6167)" style="" id="334930">
		
<path xml:space="preserve" font-family="Blinker" font-size="120" font-style="normal" font-weight="normal" style="stroke: none; stroke-width: 0; stroke-dasharray: none; stroke-linecap: butt; stroke-dashoffset: 0; stroke-linejoin: miter; stroke-miterlimit: 4; is-custom-font: none; font-file-url: none; fill: rgb(0,0,0); fill-rule: nonzero; opacity: 1; white-space: pre;" d="M-314.70 6.14L-314.70 6.14L-332.94 1.82Q-340.50 0.02-343.86-4.36Q-347.22-8.74-347.22-16.54L-347.22-16.54Q-347.22-27.94-340.68-33.34Q-334.14-38.74-320.34-38.74L-320.34-38.74Q-314.58-38.74-309.96-38.20Q-305.34-37.66-301.38-36.58L-301.38-36.58L-301.38-27.34Q-306.42-28.54-310.98-29.02Q-315.54-29.50-320.46-29.50L-320.46-29.50Q-329.70-29.50-333.42-26.80Q-337.14-24.10-337.14-17.26L-337.14-17.26Q-337.14-12.94-335.40-10.72Q-333.66-8.50-329.70-7.54L-329.70-7.54L-311.58-3.22Q-301.98-0.94-298.80 3.20Q-295.62 7.34-295.62 15.98L-295.62 15.98Q-295.62 28.34-302.04 33.50Q-308.46 38.66-322.38 38.66L-322.38 38.66Q-329.70 38.66-336.48 37.70Q-343.26 36.74-347.22 35.18L-347.22 35.18L-347.22 25.58Q-341.58 27.26-335.22 28.16Q-328.86 29.06-322.38 29.06L-322.38 29.06Q-313.38 29.06-309.78 26.42Q-306.18 23.78-306.18 16.22L-306.18 16.22Q-306.18 11.54-307.92 9.44Q-309.66 7.34-314.70 6.14Z"/><path xml:space="preserve" font-family="Blinker" font-size="120" font-style="normal" font-weight="normal" style="stroke: none; stroke-width: 0; stroke-dasharray: none; stroke-linecap: butt; stroke-dashoffset: 0; stroke-linejoin: miter; stroke-miterlimit: 4; is-custom-font: none; font-file-url: none; fill: rgb(0,0,0); fill-rule: nonzero; opacity: 1; white-space: pre;" d="M-228.90 28.10L-189.18 28.10L-189.18 37.70L-239.10 37.70L-239.10-37.54L-190.26-37.54L-190.26-28.30L-228.90-28.30L-228.90-5.26L-194.70-5.26L-194.70 3.74L-228.90 3.74L-228.90 28.10Z"/><path xml:space="preserve" font-family="Blinker" font-size="120" font-style="normal" font-weight="normal" style="stroke: none; stroke-width: 0; stroke-dasharray: none; stroke-linecap: butt; stroke-dashoffset: 0; stroke-linejoin: miter; stroke-miterlimit: 4; is-custom-font: none; font-file-url: none; fill: rgb(0,0,0); fill-rule: nonzero; opacity: 1; white-space: pre;" d="M-103.62 29.06L-103.62 29.06Q-98.70 29.06-93.24 27.92Q-87.78 26.78-83.10 24.86L-83.10 24.86L-83.10 33.98Q-89.70 36.62-94.80 37.64Q-99.90 38.66-105.42 38.66L-105.42 38.66Q-122.70 38.66-129.78 29.72Q-136.86 20.78-136.86-0.10L-136.86-0.10Q-136.86-20.14-128.64-29.44Q-120.42-38.74-102.42-38.74L-102.42-38.74Q-96.90-38.74-92.58-38.50Q-88.26-38.26-84.78-37.66L-84.78-37.66L-84.78-28.66Q-88.98-29.14-93.24-29.32Q-97.50-29.50-102.42-29.50L-102.42-29.50Q-115.86-29.50-121.14-22.84Q-126.42-16.18-126.42-0.10L-126.42-0.10Q-126.42 16.22-121.62 22.64Q-116.82 29.06-103.62 29.06Z"/><path xml:space="preserve" font-family="Blinker" font-size="120" font-style="normal" font-weight="normal" style="stroke: none; stroke-width: 0; stroke-dasharray: none; stroke-linecap: butt; stroke-dashoffset: 0; stroke-linejoin: miter; stroke-miterlimit: 4; is-custom-font: none; font-file-url: none; fill: rgb(0,0,0); fill-rule: nonzero; opacity: 1; white-space: pre;" d="M-0.30 10.70L-16.98 10.70L-16.98 37.70L-27.18 37.70L-27.18-37.54L-1.62-37.54Q14.34-37.54 21.24-32.08Q28.14-26.62 28.14-14.02L28.14-14.02Q28.14-4.18 23.76 1.64Q19.38 7.46 10.50 9.50L10.50 9.50L30.18 37.70L17.94 37.70L-0.30 10.70ZM17.82-14.02L17.82-14.02Q17.82-21.70 13.38-25.00Q8.94-28.30-1.62-28.30L-1.62-28.30L-16.98-28.30L-16.98 1.70L-1.62 1.70Q8.70 1.70 13.26-2.02Q17.82-5.74 17.82-14.02Z"/><path xml:space="preserve" font-family="Blinker" font-size="120" font-style="normal" font-weight="normal" style="stroke: none; stroke-width: 0; stroke-dasharray: none; stroke-linecap: butt; stroke-dashoffset: 0; stroke-linejoin: miter; stroke-miterlimit: 4; is-custom-font: none; font-file-url: none; fill: rgb(0,0,0); fill-rule: nonzero; opacity: 1; white-space: pre;" d="M96.66 28.10L136.38 28.10L136.38 37.70L86.46 37.70L86.46-37.54L135.30-37.54L135.30-28.30L96.66-28.30L96.66-5.26L130.86-5.26L130.86 3.74L96.66 3.74L96.66 28.10Z"/><path xml:space="preserve" font-family="Blinker" font-size="120" font-style="normal" font-weight="normal" style="stroke: none; stroke-width: 0; stroke-dasharray: none; stroke-linecap: butt; stroke-dashoffset: 0; stroke-linejoin: miter; stroke-miterlimit: 4; is-custom-font: none; font-file-url: none; fill: rgb(0,0,0); fill-rule: nonzero; opacity: 1; white-space: pre;" d="M186.54-37.54L246.66-37.54L246.66-28.30L221.70-28.30L221.70 37.70L211.50 37.70L211.50-28.30L186.54-28.30L186.54-37.54Z"/><path xml:space="preserve" font-family="Blinker" font-size="120" font-style="normal" font-weight="normal" style="stroke: none; stroke-width: 0; stroke-dasharray: none; stroke-linecap: butt; stroke-dashoffset: 0; stroke-linejoin: miter; stroke-miterlimit: 4; is-custom-font: none; font-file-url: none; fill: rgb(0,0,0); fill-rule: nonzero; opacity: 1; white-space: pre;" d="M329.58 6.14L329.58 6.14L311.34 1.82Q303.78 0.02 300.42-4.36Q297.06-8.74 297.06-16.54L297.06-16.54Q297.06-27.94 303.60-33.34Q310.14-38.74 323.94-38.74L323.94-38.74Q329.70-38.74 334.32-38.20Q338.94-37.66 342.90-36.58L342.90-36.58L342.90-27.34Q337.86-28.54 333.30-29.02Q328.74-29.50 323.82-29.50L323.82-29.50Q314.58-29.50 310.86-26.80Q307.14-24.10 307.14-17.26L307.14-17.26Q307.14-12.94 308.88-10.72Q310.62-8.50 314.58-7.54L314.58-7.54L332.70-3.22Q342.30-0.94 345.48 3.20Q348.66 7.34 348.66 15.98L348.66 15.98Q348.66 28.34 342.24 33.50Q335.82 38.66 321.90 38.66L321.90 38.66Q314.58 38.66 307.80 37.70Q301.02 36.74 297.06 35.18L297.06 35.18L297.06 25.58Q302.70 27.26 309.06 28.16Q315.42 29.06 321.90 29.06L321.90 29.06Q330.90 29.06 334.50 26.42Q338.10 23.78 338.10 16.22L338.10 16.22Q338.10 11.54 336.36 9.44Q334.62 7.34 329.58 6.14Z"/></g>
<g transform="matrix(1 0 0 1 580.0704 437.2428)" style="" id="952928">
		
<path xml:space="preserve" font-family="Blinker" font-size="96" font-style="normal" font-weight="normal" style="stroke: none; stroke-width: 0; stroke-dasharray: none; stroke-linecap: butt; stroke-dashoffset: 0; stroke-linejoin: miter; stroke-miterlimit: 4; is-custom-font: none; font-file-url: none; fill: rgb(0,0,0); fill-rule: nonzero; opacity: 1; white-space: pre;" d="M-334.46 15.66L-339.94 30.16L-348.58 30.16L-324.77-30.03L-316.32-30.03L-292.80 30.16L-301.44 30.16L-306.91 15.66L-334.46 15.66ZM-320.74-22.55L-320.74-22.55Q-321.70-19.19-322.99-15.44Q-324.29-11.70-325.63-7.95L-325.63-7.95L-331.78 8.46L-309.60 8.46L-315.74-7.95Q-317.66-13.23-318.77-16.50Q-319.87-19.76-320.74-22.55Z"/><path xml:space="preserve" font-family="Blinker" font-size="96" font-style="normal" font-weight="normal" style="stroke: none; stroke-width: 0; stroke-dasharray: none; stroke-linecap: butt; stroke-dashoffset: 0; stroke-linejoin: miter; stroke-miterlimit: 4; is-custom-font: none; font-file-url: none; fill: rgb(0,0,0); fill-rule: nonzero; opacity: 1; white-space: pre;" d="M-266.30 38.61L-266.30 38.61Q-262.66 38.61-260.78 37.02Q-258.91 35.44-256.80 29.49L-256.80 29.49L-276.19-17.27L-267.36-17.27L-252.77 21.61L-238.94-17.27L-230.50-17.27L-249.89 33.33Q-252.48 40.24-255.94 42.97Q-259.39 45.71-264.86 45.71L-264.86 45.71Q-266.50 45.71-268.27 45.52Q-270.05 45.33-271.78 45.04L-271.78 45.04L-271.78 38.13Q-270.72 38.41-269.42 38.51Q-268.13 38.61-266.30 38.61Z"/><path xml:space="preserve" font-family="Blinker" font-size="96" font-style="normal" font-weight="normal" style="stroke: none; stroke-width: 0; stroke-dasharray: none; stroke-linecap: butt; stroke-dashoffset: 0; stroke-linejoin: miter; stroke-miterlimit: 4; is-custom-font: none; font-file-url: none; fill: rgb(0,0,0); fill-rule: nonzero; opacity: 1; white-space: pre;" d="M-194.50 30.93L-194.50 30.93Q-201.79 30.93-205.20 27.42Q-208.61 23.92-208.61 16.33L-208.61 16.33Q-208.61 8.65-204.48 5.44Q-200.35 2.22-190.46 2.22L-190.46 2.22Q-187.20 2.22-184.03 2.51Q-180.86 2.80-178.08 3.37L-178.08 3.37L-178.08-1.23Q-178.08-6.51-180.77-8.82Q-183.46-11.12-189.41-11.12L-189.41-11.12Q-193.82-11.12-197.18-10.79Q-200.54-10.45-203.90-9.68L-203.90-9.68L-203.90-16.50Q-200.06-17.46-196.08-17.84Q-192.10-18.23-187.01-18.23L-187.01-18.23Q-178.46-18.23-174.34-14.24Q-170.21-10.26-170.21-1.91L-170.21-1.91L-170.21 30.16L-177.41 30.16L-177.79 25.74L-177.98 25.74Q-180.86 28.05-185.42 29.49Q-189.98 30.93-194.50 30.93ZM-189.60 8.65L-189.60 8.65Q-196.13 8.65-198.67 10.24Q-201.22 11.82-201.22 15.85L-201.22 15.85Q-201.22 20.08-199.10 21.95Q-196.99 23.82-192.19 23.82L-192.19 23.82Q-188.45 23.82-184.51 22.67Q-180.58 21.52-178.08 19.79L-178.08 19.79L-178.08 9.61Q-181.25 9.13-183.98 8.89Q-186.72 8.65-189.60 8.65Z"/><path xml:space="preserve" font-family="Blinker" font-size="96" font-style="normal" font-weight="normal" style="stroke: none; stroke-width: 0; stroke-dasharray: none; stroke-linecap: butt; stroke-dashoffset: 0; stroke-linejoin: miter; stroke-miterlimit: 4; is-custom-font: none; font-file-url: none; fill: rgb(0,0,0); fill-rule: nonzero; opacity: 1; white-space: pre;" d="M-131.33-7.57L-131.33 30.16L-139.20 30.16L-139.20-17.27L-132-17.27L-131.62-13.62L-131.33-13.62Q-127.10-16.02-123.65-17.12Q-120.19-18.23-116.74-18.23L-116.74-18.23Q-112.70-18.23-109.82-16.98Q-106.94-15.73-105.31-13.23L-105.31-13.23L-105.02-13.23Q-101.18-15.63-96.91-16.93Q-92.64-18.23-88.32-18.23L-88.32-18.23Q-81.50-18.23-78-14.63Q-74.50-11.03-74.50-4.02L-74.50-4.02L-74.50 30.16L-82.37 30.16L-82.37-3.06Q-82.37-7.19-84.58-9.15Q-86.78-11.12-91.58-11.12L-91.58-11.12Q-94.27-11.12-97.25-10.31Q-100.22-9.49-103.20-7.95L-103.20-7.95Q-103.01-6.99-102.96-6.03Q-102.91-5.07-102.91-4.02L-102.91-4.02L-102.91 30.16L-110.78 30.16L-110.78-3.06Q-110.78-7.19-112.99-9.15Q-115.20-11.12-120-11.12L-120-11.12Q-122.40-11.12-125.09-10.31Q-127.78-9.49-131.33-7.57L-131.33-7.57Z"/><path xml:space="preserve" font-family="Blinker" font-size="96" font-style="normal" font-weight="normal" style="stroke: none; stroke-width: 0; stroke-dasharray: none; stroke-linecap: butt; stroke-dashoffset: 0; stroke-linejoin: miter; stroke-miterlimit: 4; is-custom-font: none; font-file-url: none; fill: rgb(0,0,0); fill-rule: nonzero; opacity: 1; white-space: pre;" d=""/><path xml:space="preserve" font-family="Blinker" font-size="96" font-style="normal" font-weight="normal" style="stroke: none; stroke-width: 0; stroke-dasharray: none; stroke-linecap: butt; stroke-dashoffset: 0; stroke-linejoin: miter; stroke-miterlimit: 4; is-custom-font: none; font-file-url: none; fill: rgb(0,0,0); fill-rule: nonzero; opacity: 1; white-space: pre;" d="M15.46 4.91L15.46 4.91L0.86 1.45Q-5.18 0.01-7.87-3.49Q-10.56-6.99-10.56-13.23L-10.56-13.23Q-10.56-22.35-5.33-26.67Q-0.10-30.99 10.94-30.99L10.94-30.99Q15.55-30.99 19.25-30.56Q22.94-30.13 26.11-29.27L26.11-29.27L26.11-21.87Q22.08-22.83 18.43-23.22Q14.78-23.60 10.85-23.60L10.85-23.60Q3.46-23.60 0.48-21.44Q-2.50-19.28-2.50-13.81L-2.50-13.81Q-2.50-10.35-1.10-8.58Q0.29-6.80 3.46-6.03L3.46-6.03L17.95-2.58Q25.63-0.75 28.18 2.56Q30.72 5.87 30.72 12.78L30.72 12.78Q30.72 22.67 25.58 26.80Q20.45 30.93 9.31 30.93L9.31 30.93Q3.46 30.93-1.97 30.16Q-7.39 29.39-10.56 28.14L-10.56 28.14L-10.56 20.46Q-6.05 21.81-0.96 22.53Q4.13 23.25 9.31 23.25L9.31 23.25Q16.51 23.25 19.39 21.13Q22.27 19.02 22.27 12.97L22.27 12.97Q22.27 9.23 20.88 7.55Q19.49 5.87 15.46 4.91Z"/><path xml:space="preserve" font-family="Blinker" font-size="96" font-style="normal" font-weight="normal" style="stroke: none; stroke-width: 0; stroke-dasharray: none; stroke-linecap: butt; stroke-dashoffset: 0; stroke-linejoin: miter; stroke-miterlimit: 4; is-custom-font: none; font-file-url: none; fill: rgb(0,0,0); fill-rule: nonzero; opacity: 1; white-space: pre;" d="M94.37 20.94L94.37 20.94L94.37 27.57Q91.87 28.91 87.02 29.92Q82.18 30.93 77.18 30.93L77.18 30.93Q66.05 30.93 61.25 25.17Q56.45 19.41 56.45 6.16L56.45 6.16Q56.45-6.61 61.44-12.42Q66.43-18.23 77.38-18.23L77.38-18.23Q87.55-18.23 91.97-13.67Q96.38-9.11 96.38 1.55L96.38 1.55Q96.38 3.47 96.29 5.10Q96.19 6.73 95.90 9.04L95.90 9.04L64.42 9.04Q64.51 16.91 67.63 20.27Q70.75 23.63 78.43 23.63L78.43 23.63Q82.56 23.63 87.07 22.86Q91.58 22.09 94.37 20.94ZM89.18 0.49L89.18 0.49Q89.09-5.84 86.40-8.48Q83.71-11.12 77.38-11.12L77.38-11.12Q70.27-11.12 67.34-8.10Q64.42-5.07 64.42 2.51L64.42 2.51L89.09 2.51Q89.09 2.32 89.14 1.60Q89.18 0.88 89.18 0.49Z"/><path xml:space="preserve" font-family="Blinker" font-size="96" font-style="normal" font-weight="normal" style="stroke: none; stroke-width: 0; stroke-dasharray: none; stroke-linecap: butt; stroke-dashoffset: 0; stroke-linejoin: miter; stroke-miterlimit: 4; is-custom-font: none; font-file-url: none; fill: rgb(0,0,0); fill-rule: nonzero; opacity: 1; white-space: pre;" d="M158.40 20.75L158.40 20.75L158.40 27.37Q156 28.91 151.25 29.92Q146.50 30.93 141.31 30.93L141.31 30.93Q131.23 30.93 127.15 25.45Q123.07 19.98 123.07 6.35L123.07 6.35Q123.07-6.99 128.35-12.61Q133.63-18.23 146.30-18.23L146.30-18.23Q149.09-18.23 151.34-18.08Q153.60-17.94 157.15-17.46L157.15-17.46L157.15-10.45Q153.60-10.93 151.34-11.03Q149.09-11.12 146.30-11.12L146.30-11.12Q137.28-11.12 134.11-7.43Q130.94-3.73 130.94 6.35L130.94 6.35Q130.94 16.43 133.44 20.03Q135.94 23.63 143.04 23.63L143.04 23.63Q146.98 23.63 151.20 22.81Q155.42 22.00 158.40 20.75Z"/><path xml:space="preserve" font-family="Blinker" font-size="96" font-style="normal" font-weight="normal" style="stroke: none; stroke-width: 0; stroke-dasharray: none; stroke-linecap: butt; stroke-dashoffset: 0; stroke-linejoin: miter; stroke-miterlimit: 4; is-custom-font: none; font-file-url: none; fill: rgb(0,0,0); fill-rule: nonzero; opacity: 1; white-space: pre;" d="M201.50 30.93L201.50 30.93Q193.63 30.93 189.70 26.99Q185.76 23.05 185.76 15.18L185.76 15.18L185.76-17.27L193.63-17.27L193.63 14.22Q193.63 19.12 196.13 21.33Q198.62 23.53 204 23.53L204 23.53Q207.26 23.53 210.58 22.72Q213.89 21.90 217.25 20.17L217.25 20.17L217.25-17.27L225.12-17.27L225.12 30.16L217.92 30.16L217.54 26.22L217.34 26.22Q212.35 28.81 208.70 29.87Q205.06 30.93 201.50 30.93Z"/><path xml:space="preserve" font-family="Blinker" font-size="96" font-style="normal" font-weight="normal" style="stroke: none; stroke-width: 0; stroke-dasharray: none; stroke-linecap: butt; stroke-dashoffset: 0; stroke-linejoin: miter; stroke-miterlimit: 4; is-custom-font: none; font-file-url: none; fill: rgb(0,0,0); fill-rule: nonzero; opacity: 1; white-space: pre;" d="M264.38-6.99L264.38 30.16L256.51 30.16L256.51-17.27L263.71-17.27L264.10-13.23L264.48-13.23Q268.22-15.44 271.97-16.55Q275.71-17.65 279.36-17.65L279.36-17.65Q280.90-17.65 281.42-17.65Q281.95-17.65 282.24-17.55L282.24-17.55L282.24-9.97Q281.57-10.16 280.56-10.21Q279.55-10.26 277.44-10.26L277.44-10.26Q273.98-10.26 270.67-9.44Q267.36-8.63 264.38-6.99L264.38-6.99Z"/><path xml:space="preserve" font-family="Blinker" font-size="96" font-style="normal" font-weight="normal" style="stroke: none; stroke-width: 0; stroke-dasharray: none; stroke-linecap: butt; stroke-dashoffset: 0; stroke-linejoin: miter; stroke-miterlimit: 4; is-custom-font: none; font-file-url: none; fill: rgb(0,0,0); fill-rule: nonzero; opacity: 1; white-space: pre;" d="M343.49 20.94L343.49 20.94L343.49 27.57Q340.99 28.91 336.14 29.92Q331.30 30.93 326.30 30.93L326.30 30.93Q315.17 30.93 310.37 25.17Q305.57 19.41 305.57 6.16L305.57 6.16Q305.57-6.61 310.56-12.42Q315.55-18.23 326.50-18.23L326.50-18.23Q336.67-18.23 341.09-13.67Q345.50-9.11 345.50 1.55L345.50 1.55Q345.50 3.47 345.41 5.10Q345.31 6.73 345.02 9.04L345.02 9.04L313.54 9.04Q313.63 16.91 316.75 20.27Q319.87 23.63 327.55 23.63L327.55 23.63Q331.68 23.63 336.19 22.86Q340.70 22.09 343.49 20.94ZM338.30 0.49L338.30 0.49Q338.21-5.84 335.52-8.48Q332.83-11.12 326.50-11.12L326.50-11.12Q319.39-11.12 316.46-8.10Q313.54-5.07 313.54 2.51L313.54 2.51L338.21 2.51Q338.21 2.32 338.26 1.60Q338.30 0.88 338.30 0.49Z"/></g>
</svg>